<svg width="121" height="102" viewBox="0 0 121 102" fill="none" xmlns="http://www.w3.org/2000/svg">
<g opacity="0.6">
<path d="M60.7495 65.6016C58.6786 65.6016 57 63.9227 57 61.8521V35.6057C57 33.535 58.6786 31.8562 60.7495 31.8562C62.8204 31.8562 64.499 33.535 64.499 35.6057V61.8521C64.499 63.923 62.8204 65.6016 60.7495 65.6016Z" fill="#B9B9B9"/>
<path d="M118.913 84.4263L72.2339 6.62913C66.9378 -2.20115 54.0733 -2.21826 48.7668 6.62913L2.08782 84.4263C-2.3265 91.7835 2.98442 101.222 11.5975 101.222H109.403C118.017 101.222 123.326 91.7823 118.913 84.4263ZM109.403 93.7227H11.5977C8.80386 93.7227 7.09081 90.6598 8.51843 88.2836L55.1972 10.4864C57.592 6.49485 63.4058 6.49016 65.8036 10.4864L112.482 88.2836C113.908 90.6573 112.199 93.7227 109.403 93.7227Z" fill="#CCCCCC"/>
<path d="M60.6242 80.5995C63.7304 80.5995 66.2485 78.0815 66.2485 74.9753C66.2485 71.8691 63.7304 69.3511 60.6242 69.3511C57.5181 69.3511 55 71.8691 55 74.9753C55 78.0815 57.5181 80.5995 60.6242 80.5995Z" fill="#B9B9B9"/>
</g>
</svg>
