<svg width="125" height="143" viewBox="0 0 125 143" fill="none" xmlns="http://www.w3.org/2000/svg">
<circle cx="67.75" cy="57" r="57" fill="#F4F4F4"/>
<g clip-path="url(#clip0)">
<path d="M23.5 59.2498L30.25 49.4998H79L85.75 59.2498L85 118.5L79.75 126L71.5 127.5V88.4998L49.75 63.7498H23.5V59.2498Z" fill="#F4F4F4"/>
<path d="M11.5 68.2495L16.75 62.9995H49V79.4995L55.75 87.7495H71.5L70.75 134.25L64.75 139.5H15.25L10 132L11.5 68.2495Z" fill="white"/>
<path d="M74.8309 48H33.3679C27.0529 48 21.9154 53.1375 21.9154 59.451V61.683H19.6834C13.3699 61.683 8.23242 66.819 8.23242 73.134V130.56C8.23242 136.873 13.3699 142.011 19.6834 142.011H61.1479C67.4614 142.011 72.5989 136.873 72.5989 130.56V128.328H74.8309C81.1444 128.328 86.2819 123.192 86.2819 116.877V59.451C86.2819 53.1375 81.1444 48 74.8309 48ZM61.1479 139.012H19.6834C15.0244 139.012 11.2324 135.222 11.2324 130.561V73.134C11.2324 68.475 15.0229 64.683 19.6834 64.683H48.2449V77.9025C48.2449 84.216 53.3824 89.3535 59.6959 89.3535H69.5989V130.56C69.5974 135.22 65.8069 139.012 61.1479 139.012ZM51.2449 67.209L67.8154 86.3535H59.6959C55.0369 86.3535 51.2449 82.563 51.2449 77.9025V67.209ZM83.2819 116.877C83.2819 121.536 79.4914 125.328 74.8309 125.328H72.5989V87.8535C72.5989 87.4935 72.4684 87.144 72.2329 86.8725L50.8789 62.202C50.5954 61.872 50.1799 61.683 49.7449 61.683H24.9154V59.451C24.9154 54.7905 28.7074 51 33.3679 51H74.8309C79.4899 51 83.2819 54.7905 83.2819 59.451V116.877Z" fill="#B9B9B9"/>
<rect opacity="0.55" x="15.25" y="94.4998" width="49.5" height="4.5" rx="1.5" fill="#B9B9B9"/>
<rect opacity="0.5" x="15.25" y="102" width="16.5" height="4.5" rx="1.5" fill="#CDCDCD"/>
<rect opacity="0.55" x="15.25" y="112.499" width="49.5" height="4.5" rx="1.5" fill="#B9B9B9"/>
<rect opacity="0.5" x="15.25" y="120" width="16.5" height="4.5" rx="1.5" fill="#CDCDCD"/>
</g>
<path d="M89.353 51.1383L99.8481 40.5003" stroke="#B9B9B9" stroke-width="1.5"/>
<path d="M82.4435 46.0761L85.7358 31.4996" stroke="#B9B9B9" stroke-width="1.5"/>
<path d="M93.2502 56.8498L100.714 56.499L108.177 56.1482" stroke="#B9B9B9" stroke-width="1.5"/>
<defs>
<clipPath id="clip0">
<rect width="94.0125" height="94.0125" fill="white" transform="translate(0.25 48)"/>
</clipPath>
</defs>
</svg>
